<?xml version="1.0" encoding="UTF-8"?>
<svg id="Layer_1" data-name="Layer 1" xmlns="http://www.w3.org/2000/svg" viewBox="0 0 1921 422.3">
  <defs>
    <style>
      .cls-1 {
        fill: #0c0303;
        stroke: #000;
        stroke-miterlimit: 10;
      }
    </style>
  </defs>
  <path class="cls-1" d="M1569.69,292.87c-14.76,0-26.61-11.8-27.57-27.45l-1.56-27.04c-.05-.95.68-1.77,1.63-1.83,1.11-.1,1.78.68,1.83,1.63l1.56,27.04c.84,13.79,11.21,24.19,24.11,24.19s24.11-10.81,24.11-24.09v-28.59c0-.96.77-1.73,1.73-1.73s1.73.78,1.73,1.73v28.59c0,15.19-12.36,27.55-27.57,27.55Z"/>
  <path class="cls-1" d="M952.7,367.22c-15.21,0-27.57-12.36-27.57-27.55v-141.94c0-.96.77-1.73,1.73-1.73s1.73.77,1.73,1.73v141.94c0,13.28,10.82,24.09,24.11,24.09s23.77-10.6,24.11-24.13l.52-23.91c.02-.95.79-1.7,1.73-1.7h.04c.96.02,1.72.81,1.69,1.76l-.52,23.92c-.38,15.43-12.49,27.51-27.57,27.51Z"/>
  <path class="cls-1" d="M874.84,231.52c-.96,0-1.73-.78-1.73-1.73v-43.67c0-15.1,12.29-27.38,27.39-27.38s27.38,12.27,27.57,27.36l.52,24.07c.03.96-.74,1.75-1.69,1.77-.83-.09-1.75-.74-1.77-1.7l-.52-24.09c-.17-13.22-10.98-23.96-24.11-23.96s-23.93,10.73-23.93,23.92v43.67c0,.96-.77,1.73-1.73,1.73Z"/>
  <path class="cls-1" d="M1595.36,262.54c-.96,0-1.73-.77-1.73-1.73v-33.62c0-15.19,12.29-27.55,27.39-27.55s27.38,12.35,27.57,27.53c0,.96-.76,1.74-1.71,1.76h-.02c-.95,0-1.72-.76-1.73-1.71-.17-13.29-10.98-24.11-24.11-24.11s-23.93,10.81-23.93,24.09v33.62c0,.96-.77,1.73-1.73,1.73Z"/>
  <path class="cls-1" d="M1918.77,254.22h-245.89c-15.2,0-27.57-12.36-27.57-27.55,0-.96.77-1.74,1.73-1.74s1.73.78,1.73,1.74c0,13.28,10.82,24.09,24.11,24.09h245.89c.96,0,1.73.77,1.73,1.73s-.77,1.73-1.73,1.73Z"/>
  <path class="cls-1" d="M849,253H2.23c-.96,0-1.73-.77-1.73-1.73s.77-1.73,1.73-1.73h846.77c13.29,0,24.11-10.81,24.11-24.09,0-.96.77-1.73,1.73-1.73s1.73.78,1.73,1.73c0,15.19-12.36,27.55-27.57,27.55Z"/>
  <path class="cls-1" d="M1128.19,207.26h-148.96c-.96,0-1.73-.78-1.73-1.73v-33.45c0-.96.77-1.73,1.73-1.73h148.96c.96,0,1.73.77,1.73,1.73v33.45c0,.96-.77,1.73-1.73,1.73ZM980.96,203.79h145.5v-29.98h-145.5v29.98Z"/>
  <path class="cls-1" d="M1128.19,221.99h-156.94c-.49,0-.96-.21-1.28-.57l-13.36-14.73c-.46-.5-.58-1.24-.3-1.86.27-.63.9-1.03,1.58-1.03h170.29c.96,0,1.73.77,1.73,1.73v14.73c0,.96-.77,1.73-1.73,1.73ZM972.02,218.52h154.44v-11.26h-164.65l10.21,11.26Z"/>
  <path class="cls-1" d="M1128.19,421.8c-.96,0-1.73-.77-1.73-1.73v-177.3h-145.5v86.83c0,.96-.78,1.73-1.73,1.73s-1.73-.77-1.73-1.73v-88.55c0-.96.77-1.73,1.73-1.73h148.96c.96,0,1.73.77,1.73,1.73v179.02c0,.96-.77,1.73-1.73,1.73Z"/>
  <path class="cls-1" d="M1192.35,204.83c-.96,0-1.73-.78-1.73-1.73v-31.02c0-.96.77-1.73,1.73-1.73s1.73.77,1.73,1.73v31.02c0,.96-.77,1.73-1.73,1.73Z"/>
  <path class="cls-1" d="M1208.3,205.35c-.96,0-1.73-.78-1.73-1.73v-31.02c0-.96.77-1.73,1.73-1.73s1.73.78,1.73,1.73v31.02c0,.95-.77,1.73-1.73,1.73Z"/>
  <path class="cls-1" d="M1012.53,240.01c-.96,0-1.73-.77-1.73-1.73v-15.25c0-.96.77-1.73,1.73-1.73s1.73.78,1.73,1.73v15.25c0,.96-.78,1.73-1.73,1.73Z"/>
  <path class="cls-1" d="M1028.65,240.36c-.96,0-1.73-.77-1.73-1.73v-15.42c0-.96.77-1.73,1.73-1.73s1.73.78,1.73,1.73v15.42c0,.96-.77,1.73-1.73,1.73Z"/>
  <path class="cls-1" d="M1318.6,239.49c-3.89,0-6.93-2.97-6.93-6.76s3.04-6.76,6.93-6.76,6.76,3.03,6.76,6.76-3.03,6.76-6.76,6.76ZM1318.6,229.44c-1.94,0-3.47,1.44-3.47,3.29s1.53,3.29,3.47,3.29c1.81,0,3.3-1.47,3.3-3.29s-1.48-3.29-3.3-3.29Z"/>
  <path class="cls-1" d="M1045.65,238.62c-.96,0-1.73-.77-1.73-1.73v-15.43c0-.96.77-1.73,1.73-1.73s1.73.78,1.73,1.73v15.43c0,.96-.77,1.73-1.73,1.73Z"/>
  <path class="cls-1" d="M1061.6,238.97c-.96,0-1.73-.77-1.73-1.73v-15.43c0-.95.77-1.73,1.73-1.73s1.73.78,1.73,1.73v15.43c0,.96-.77,1.73-1.73,1.73Z"/>
  <path class="cls-1" d="M1077.55,239.14c-.96,0-1.73-.77-1.73-1.73v-15.25c0-.96.77-1.73,1.73-1.73s1.73.77,1.73,1.73v15.25c0,.96-.77,1.73-1.73,1.73Z"/>
  <path class="cls-1" d="M1093.51,239.49c-.96,0-1.73-.77-1.73-1.73v-15.42c0-.96.77-1.73,1.73-1.73s1.73.78,1.73,1.73v15.42c0,.96-.77,1.73-1.73,1.73Z"/>
  <path class="cls-1" d="M1111.02,239.49c-.96,0-1.73-.77-1.73-1.73v-15.42c0-.96.77-1.73,1.73-1.73s1.73.78,1.73,1.73v15.42c0,.96-.77,1.73-1.73,1.73Z"/>
  <path class="cls-1" d="M1128.19,173.81h-148.96c-.96,0-1.73-.78-1.73-1.73v-13.52c0-.96.77-1.73,1.73-1.73h148.96c.96,0,1.73.77,1.73,1.73v13.52c0,.96-.77,1.73-1.73,1.73ZM980.96,170.35h145.5v-10.06h-145.5v10.06Z"/>
  <path class="cls-1" d="M1092.99,421.8c-.96,0-1.73-.77-1.73-1.73v-163.61h-78.04v163.61c0,.96-.77,1.73-1.73,1.73s-1.73-.77-1.73-1.73v-165.33c0-.96.77-1.73,1.73-1.73h81.51c.95,0,1.73.77,1.73,1.73v165.33c0,.96-.78,1.73-1.73,1.73Z"/>
  <path class="cls-1" d="M1320.68,421.8c-.96,0-1.73-.77-1.73-1.73v-109.01c0-43.29-25.13-78.5-56.02-78.5s-56.19,35.21-56.19,78.5v109.01c0,.96-.77,1.73-1.73,1.73s-1.73-.77-1.73-1.73v-109.01c0-45.2,26.76-81.97,59.66-81.97s59.48,36.77,59.48,81.97v109.01c0,.96-.77,1.73-1.73,1.73Z"/>
  <path class="cls-1" d="M1203.1,239.49c-3.76,0-6.93-3.09-6.93-6.76s3.18-6.76,6.93-6.76,6.76,3.03,6.76,6.76-3.03,6.76-6.76,6.76ZM1203.1,229.44c-1.88,0-3.47,1.51-3.47,3.29s1.59,3.29,3.47,3.29,3.3-1.47,3.3-3.29-1.48-3.29-3.3-3.29Z"/>
  <path class="cls-1" d="M1395.59,160.46h-11.1c-.96,0-1.73-.78-1.73-1.73s.77-1.73,1.73-1.73h11.1c.96,0,1.73.77,1.73,1.73s-.77,1.73-1.73,1.73ZM1350.85,160.46h-179.3c-.96,0-1.73-.78-1.73-1.73s.77-1.73,1.73-1.73h179.3c.96,0,1.73.77,1.73,1.73s-.77,1.73-1.73,1.73ZM1137.03,160.46h-.02l-14.74-.17c-.96-.01-1.73-.8-1.72-1.76,0-.94.79-1.71,1.73-1.71h.02l14.74.17c.96,0,1.73.8,1.71,1.75,0,.95-.78,1.71-1.73,1.71Z"/>
  <path class="cls-1" d="M1393.86,207.26h-263.59c-.96,0-1.73-.78-1.73-1.73s.77-1.73,1.73-1.73h263.59c.96,0,1.73.77,1.73,1.73s-.77,1.73-1.73,1.73Z"/>
  <path class="cls-1" d="M1233.8,204.83c-.96,0-1.73-.78-1.73-1.73v-31.02c0-.96.77-1.73,1.73-1.73s1.73.77,1.73,1.73v31.02c0,.96-.77,1.73-1.73,1.73Z"/>
  <path class="cls-1" d="M1249.75,205.35c-.96,0-1.73-.78-1.73-1.73v-31.02c0-.96.77-1.73,1.73-1.73s1.73.78,1.73,1.73v31.02c0,.95-.77,1.73-1.73,1.73Z"/>
  <path class="cls-1" d="M1275.24,204.83c-.96,0-1.73-.78-1.73-1.73v-31.02c0-.96.77-1.73,1.73-1.73s1.73.77,1.73,1.73v31.02c0,.96-.77,1.73-1.73,1.73Z"/>
  <path class="cls-1" d="M1291.37,205.35c-.96,0-1.73-.78-1.73-1.73v-31.02c0-.96.77-1.73,1.73-1.73s1.73.78,1.73,1.73v31.02c0,.95-.77,1.73-1.73,1.73Z"/>
  <path class="cls-1" d="M1316.86,204.83c-.96,0-1.73-.78-1.73-1.73v-31.02c0-.96.77-1.73,1.73-1.73s1.73.77,1.73,1.73v31.02c0,.96-.77,1.73-1.73,1.73Z"/>
  <path class="cls-1" d="M1332.82,205.35c-.96,0-1.73-.78-1.73-1.73v-31.02c0-.96.77-1.73,1.73-1.73s1.73.78,1.73,1.73v31.02c0,.95-.77,1.73-1.73,1.73Z"/>
  <path class="cls-1" d="M1384.14,96.17h-246.77c-.96,0-1.73-.78-1.73-1.73s.77-1.73,1.73-1.73h246.77c.96,0,1.73.78,1.73,1.73s-.77,1.73-1.73,1.73Z"/>
  <path class="cls-1" d="M1185.76,421.8c-.96,0-1.73-.77-1.73-1.73v-206.58c0-.96.77-1.73,1.73-1.73s1.73.78,1.73,1.73v206.58c0,.96-.77,1.73-1.73,1.73Z"/>
  <path class="cls-1" d="M1349.46,72.94h-175.66c-.96,0-1.73-.77-1.73-1.73s.77-1.73,1.73-1.73h175.66c.96,0,1.73.78,1.73,1.73s-.77,1.73-1.73,1.73Z"/>
  <path class="cls-1" d="M1171.02,172.25c-.96,0-1.73-.77-1.73-1.73V44c0-15.59-6.91-28.77-15.09-28.77s-15.09,13.18-15.09,28.77v126.51c0,.96-.77,1.73-1.73,1.73s-1.73-.77-1.73-1.73V44c0-17.78,8.32-32.24,18.55-32.24s18.55,14.46,18.55,32.24v126.51c0,.96-.78,1.73-1.73,1.73Z"/>
  <path class="cls-1" d="M1170.15,43.31h-32.42c-.96,0-1.73-.78-1.73-1.73s.77-1.73,1.73-1.73h32.42c.96,0,1.73.78,1.73,1.73s-.78,1.73-1.73,1.73Z"/>
  <path class="cls-1" d="M1153.68,13.67c-.96,0-1.73-.78-1.73-1.74V2.58c0-.96.77-1.74,1.73-1.74s1.73.78,1.73,1.74v9.36c0,.96-.77,1.74-1.73,1.74Z"/>
  <path class="cls-1" d="M1128.19,244.17c-.96,0-1.73-.77-1.73-1.73v-23.74c0-.96.77-1.73,1.73-1.73s1.73.78,1.73,1.73v23.74c0,.96-.77,1.73-1.73,1.73Z"/>
  <path class="cls-1" d="M1393.33,214.88h-263.58c-.96,0-1.73-.78-1.73-1.74s.77-1.73,1.73-1.73h263.58c.96,0,1.73.77,1.73,1.73s-.77,1.74-1.73,1.74Z"/>
  <path class="cls-1" d="M1392.12,173.81h-263.41c-.96,0-1.73-.78-1.73-1.73s.77-1.73,1.73-1.73h263.41c.96,0,1.73.77,1.73,1.73s-.77,1.73-1.73,1.73Z"/>
  <path class="cls-1" d="M1185.76,238.97h-56.01c-.96,0-1.73-.77-1.73-1.73s.77-1.73,1.73-1.73h56.01c.96,0,1.73.78,1.73,1.73s-.77,1.73-1.73,1.73Z"/>
  <path class="cls-1" d="M1185.76,389.23h-56.01c-.96,0-1.73-.77-1.73-1.73s.77-1.73,1.73-1.73h56.01c.96,0,1.73.77,1.73,1.73s-.77,1.73-1.73,1.73Z"/>
  <path class="cls-1" d="M1338.19,421.8c-.96,0-1.73-.77-1.73-1.73v-206.93c0-.96.77-1.73,1.73-1.73s1.73.77,1.73,1.73v206.93c0,.96-.77,1.73-1.73,1.73Z"/>
  <path class="cls-1" d="M1394.2,241.39h-55.84c-.95,0-1.73-.77-1.73-1.73s.77-1.73,1.73-1.73h55.84c.96,0,1.73.77,1.73,1.73s-.77,1.73-1.73,1.73Z"/>
  <path class="cls-1" d="M1394.2,391.82h-55.84c-.95,0-1.73-.77-1.73-1.73s.77-1.73,1.73-1.73h55.84c.96,0,1.73.77,1.73,1.73s-.77,1.73-1.73,1.73Z"/>
  <path class="cls-1" d="M979.58,240.36c-.96,0-1.73-.77-1.73-1.73v-15.42c0-.96.77-1.73,1.73-1.73s1.73.78,1.73,1.73v15.42c0,.96-.78,1.73-1.73,1.73Z"/>
  <path class="cls-1" d="M995.53,240.53c-.96,0-1.73-.77-1.73-1.73v-15.25c0-.96.77-1.73,1.73-1.73s1.73.77,1.73,1.73v15.25c0,.96-.77,1.73-1.73,1.73Z"/>
  <path class="cls-1" d="M1078.77,421.8c-.96,0-1.73-.77-1.73-1.73v-115.08c0-18.73-11.13-33.97-24.8-33.97s-24.8,15.24-24.8,33.97v115.08c0,.96-.77,1.73-1.73,1.73s-1.73-.77-1.73-1.73v-115.08c0-20.64,12.68-37.43,28.26-37.43s28.27,16.79,28.27,37.43v115.08c0,.96-.78,1.73-1.73,1.73Z"/>
  <path class="cls-1" d="M1161.83,95.3c-.96,0-1.73-.78-1.73-1.73v-32.24c0-4.51-2.71-8.32-5.9-8.32s-5.72,3.73-5.72,8.32v32.24c0,.96-.77,1.73-1.73,1.73s-1.73-.78-1.73-1.73v-32.24c0-6.61,4.03-11.79,9.19-11.79s9.36,5.29,9.36,11.79v32.24c0,.96-.77,1.73-1.73,1.73Z"/>
  <path class="cls-1" d="M1542.64,207.26h-149.14c-.96,0-1.73-.78-1.73-1.73v-33.45c0-.96.77-1.73,1.73-1.73h149.14c.96,0,1.73.77,1.73,1.73v33.45c0,.96-.77,1.73-1.73,1.73ZM1395.24,203.79h145.67v-29.98h-145.67v29.98Z"/>
  <path class="cls-1" d="M1550.44,221.99h-156.94c-.96,0-1.73-.77-1.73-1.73v-14.73c0-.96.77-1.73,1.73-1.73h170.47c.69,0,1.31.41,1.59,1.04.27.63.15,1.36-.31,1.87l-13.53,14.73c-.33.36-.79.56-1.28.56ZM1395.24,218.52h154.44l10.35-11.26h-164.79v11.26Z"/>
  <path class="cls-1" d="M1393.51,421.8c-.96,0-1.73-.77-1.73-1.73v-179.02c0-.96.77-1.73,1.73-1.73h149.14c.96,0,1.73.77,1.73,1.73s-.77,1.73-1.73,1.73h-147.4v177.3c0,.96-.78,1.73-1.73,1.73Z"/>
  <path class="cls-1" d="M1509.18,240.01c-.96,0-1.73-.77-1.73-1.73v-15.25c0-.96.77-1.73,1.73-1.73s1.73.78,1.73,1.73v15.25c0,.96-.77,1.73-1.73,1.73Z"/>
  <path class="cls-1" d="M1493.22,240.36c-.96,0-1.73-.77-1.73-1.73v-15.42c0-.96.77-1.73,1.73-1.73s1.73.78,1.73,1.73v15.42c0,.96-.77,1.73-1.73,1.73Z"/>
  <path class="cls-1" d="M1476.22,238.62c-.96,0-1.73-.77-1.73-1.73v-15.43c0-.96.77-1.73,1.73-1.73s1.73.78,1.73,1.73v15.43c0,.96-.77,1.73-1.73,1.73Z"/>
  <path class="cls-1" d="M1460.27,238.97c-.96,0-1.73-.77-1.73-1.73v-15.43c0-.95.77-1.73,1.73-1.73s1.73.78,1.73,1.73v15.43c0,.96-.77,1.73-1.73,1.73Z"/>
  <path class="cls-1" d="M1444.32,239.14c-.96,0-1.73-.77-1.73-1.73v-15.25c0-.96.77-1.73,1.73-1.73s1.73.77,1.73,1.73v15.25c0,.96-.77,1.73-1.73,1.73Z"/>
  <path class="cls-1" d="M1428.19,239.49c-.96,0-1.73-.77-1.73-1.73v-15.42c0-.96.77-1.73,1.73-1.73s1.73.78,1.73,1.73v15.42c0,.96-.77,1.73-1.73,1.73Z"/>
  <path class="cls-1" d="M1410.67,239.49c-.96,0-1.73-.77-1.73-1.73v-15.42c0-.96.77-1.73,1.73-1.73s1.73.78,1.73,1.73v15.42c0,.96-.77,1.73-1.73,1.73Z"/>
  <path class="cls-1" d="M1542.64,173.81h-149.14c-.96,0-1.73-.78-1.73-1.73v-13.52c0-.96.77-1.73,1.73-1.73h149.14c.96,0,1.73.77,1.73,1.73v13.52c0,.96-.77,1.73-1.73,1.73ZM1395.24,170.35h145.67v-10.06h-145.67v10.06Z"/>
  <path class="cls-1" d="M1507.61,421.8c-.96,0-1.73-.77-1.73-1.73v-163.61h-78.04v163.61c0,.96-.77,1.73-1.73,1.73s-1.73-.77-1.73-1.73v-165.33c0-.96.77-1.73,1.73-1.73h81.5c.96,0,1.73.77,1.73,1.73v165.33c0,.96-.77,1.73-1.73,1.73Z"/>
  <path class="cls-1" d="M1393.51,244.17c-.96,0-1.73-.77-1.73-1.73v-23.74c0-.96.77-1.73,1.73-1.73s1.73.78,1.73,1.73v23.74c0,.96-.78,1.73-1.73,1.73Z"/>
  <path class="cls-1" d="M1542.12,240.36c-.96,0-1.73-.77-1.73-1.73v-15.42c0-.96.77-1.73,1.73-1.73s1.73.78,1.73,1.73v15.42c0,.96-.77,1.73-1.73,1.73Z"/>
  <path class="cls-1" d="M1526.17,240.53c-.96,0-1.73-.77-1.73-1.73v-15.25c0-.96.77-1.73,1.73-1.73s1.73.77,1.73,1.73v15.25c0,.96-.77,1.73-1.73,1.73Z"/>
  <path class="cls-1" d="M1493.4,421.8c-.96,0-1.73-.77-1.73-1.73v-115.08c0-18.73-11.13-33.97-24.8-33.97s-24.8,15.24-24.8,33.97v115.08c0,.96-.77,1.73-1.73,1.73s-1.73-.77-1.73-1.73v-115.08c0-20.64,12.68-37.43,28.27-37.43s28.26,16.79,28.26,37.43v115.08c0,.96-.77,1.73-1.73,1.73Z"/>
  <path class="cls-1" d="M1384.14,171.21c-.96,0-1.73-.78-1.73-1.74V43.48c0-15.59-6.83-28.77-14.92-28.77s-15.09,13.18-15.09,28.77v125.99c0,.96-.77,1.74-1.73,1.74s-1.73-.78-1.73-1.74V43.48c0-17.78,8.32-32.24,18.55-32.24s18.38,14.16,18.38,32.24v125.99c0,.96-.77,1.74-1.73,1.74Z"/>
  <path class="cls-1" d="M1383.97,42.79h-32.6c-.95,0-1.73-.77-1.73-1.73s.77-1.73,1.73-1.73h32.6c.96,0,1.73.78,1.73,1.73s-.77,1.73-1.73,1.73Z"/>
  <path class="cls-1" d="M1368.02,13.33c-.96,0-1.73-.78-1.73-1.73V2.23c0-.96.77-1.73,1.73-1.73s1.73.78,1.73,1.73v9.36c0,.96-.77,1.73-1.73,1.73Z"/>
  <path class="cls-1" d="M1374.95,94.78c-.96,0-1.73-.77-1.73-1.73v-32.23c0-4.59-2.57-8.32-5.73-8.32s-5.89,3.81-5.89,8.32v32.23c0,.96-.77,1.73-1.73,1.73s-1.73-.77-1.73-1.73v-32.23c0-6.5,4.19-11.78,9.36-11.78s9.19,5.18,9.19,11.78v32.23c0,.96-.77,1.73-1.73,1.73Z"/>
  <path class="cls-1" d="M1186.98,94.78c-.96,0-1.73-.77-1.73-1.73v-21.32c0-.96.77-1.73,1.73-1.73s1.73.78,1.73,1.73v21.32c0,.96-.78,1.73-1.73,1.73Z"/>
  <path class="cls-1" d="M1203.1,95.3c-.96,0-1.73-.78-1.73-1.73v-21.49c0-.96.77-1.73,1.73-1.73s1.73.78,1.73,1.73v21.49c0,.96-.77,1.73-1.73,1.73Z"/>
  <path class="cls-1" d="M1219.92,95.65c-.96,0-1.73-.78-1.73-1.73v-21.32c0-.96.77-1.73,1.73-1.73s1.73.77,1.73,1.73v21.32c0,.96-.77,1.73-1.73,1.73Z"/>
  <path class="cls-1" d="M1235.88,96.17c-.96,0-1.73-.78-1.73-1.73v-21.49c0-.96.77-1.73,1.73-1.73s1.73.78,1.73,1.73v21.49c0,.96-.78,1.73-1.73,1.73Z"/>
  <path class="cls-1" d="M1252.87,95.48c-.96,0-1.73-.78-1.73-1.73v-21.49c0-.96.77-1.73,1.73-1.73s1.73.78,1.73,1.73v21.49c0,.96-.77,1.73-1.73,1.73Z"/>
  <path class="cls-1" d="M1268.83,95.82c-.96,0-1.73-.78-1.73-1.73v-21.31c0-.96.77-1.73,1.73-1.73s1.73.78,1.73,1.73v21.31c0,.96-.78,1.73-1.73,1.73Z"/>
  <path class="cls-1" d="M1285.82,95.48c-.96,0-1.73-.78-1.73-1.73v-21.32c0-.96.77-1.73,1.73-1.73s1.73.78,1.73,1.73v21.32c0,.96-.77,1.73-1.73,1.73Z"/>
  <path class="cls-1" d="M1301.77,96c-.96,0-1.73-.78-1.73-1.74v-21.49c0-.96.77-1.73,1.73-1.73s1.73.78,1.73,1.73v21.49c0,.96-.77,1.74-1.73,1.74Z"/>
  <path class="cls-1" d="M1318.77,94.95c-.96,0-1.73-.78-1.73-1.73v-21.32c0-.96.77-1.73,1.73-1.73s1.73.78,1.73,1.73v21.32c0,.96-.77,1.73-1.73,1.73Z"/>
  <path class="cls-1" d="M1334.72,95.48c-.96,0-1.73-.78-1.73-1.73v-21.49c0-.96.77-1.73,1.73-1.73s1.73.78,1.73,1.73v21.49c0,.96-.77,1.73-1.73,1.73Z"/>
  <path class="cls-1" d="M1185.76,333.42h-56.01c-.96,0-1.73-.77-1.73-1.73s.77-1.73,1.73-1.73h56.01c.96,0,1.73.77,1.73,1.73s-.77,1.73-1.73,1.73Z"/>
  <path class="cls-1" d="M1394.2,335.85h-55.84c-.95,0-1.73-.77-1.73-1.73s.77-1.73,1.73-1.73h55.84c.96,0,1.73.77,1.73,1.73s-.77,1.73-1.73,1.73Z"/>
  <path class="cls-1" d="M1185.76,277.44h-56.01c-.96,0-1.73-.77-1.73-1.73s.77-1.73,1.73-1.73h56.01c.96,0,1.73.77,1.73,1.73s-.77,1.73-1.73,1.73Z"/>
  <path class="cls-1" d="M1394.2,280.04h-55.84c-.95,0-1.73-.77-1.73-1.73s.77-1.73,1.73-1.73h55.84c.96,0,1.73.77,1.73,1.73s-.77,1.73-1.73,1.73Z"/>
</svg>